<svg xmlns="http://www.w3.org/2000/svg" width="274.667" height="274.667" version="1.0" viewBox="0 0 206 206">
  <path d="M103 45c-2 2-1 7 1 8 2 0 2 2 2 3 0 1 0 2 0 2 1 0 3-7 2-8 0-1-1 0-2 1-2 3-3 2-3-1 0-3 3-5 4-3 1 1 1 1 0 0-2-4-2-6-1zM109 50c-1 2-2 7-1 7 1 0 2-1 2-3 1-4 4-4 4 0 0 2 0 3 2 3 2-1 5 1 4 2-1 2 1 1 3-1 4-4 4-4 5-3 1 1 2 1 3 1 2-1 3-5 2-7-1-1-4 0-4 1 0 1-1 0-1-1-3-5-2-2-5 2 0 2 0 3-1 3 0 0 0-1 0-3 1-4-1-4-2 0-1 0-1 0-3zM123 55c-2 2-2 1-1-2 1-2 1-2 1-1 0 1 0 2 0 3zM130 55c-1 1-2 0-1-3 1-2 1-2 0 2 0 1 0 3 0 3zM98 60c0 1 0 1 0 2 1 0 1-5 2-8 2-14 4-18 9-4 4-6 10-6 16 0 7 2 10 6 11 4 1 6 0 4-4-2-4 1-14 4-18 2-2 4-3 5-3h2l-2 8c-2 7-2 8 0 11 2 4 2 6 0 12-2 6-1 10 2 10 1 0 3 0 4 1 2 1 2 0 3-6 1-8 1-7 10-7 4 0 5 0 6-3 1-1 1-4 1-5 0-2 0-2-7-2-4 0-7 0-7-1 1-4 2-8 2-8l2-7 7 1c9 1 11 0 14-6 3-7 3-7-6-7-10 0-16-1-16-3 0-2-1-2-2-1zM36 66c-10 11-14 22-14 36 0 14 5 26 14 35 5 5 6 4 5-2 0-16-19-16-50 0-71 5-6 3-6-2 0zM164 61c0 1 2 3 3 5 8 10 12 21 12 36 0 13-4 25-12 35-4 5-2 5 3 0 18-20 18-51 0-70-3-3-5-5-5-5zM43 73c-7 10-10 18-10 29 0 10 6 24 13 31 4 4 4 3 0-4-6-8-9-17-9-28 0-11 2-18 8-27 5-8 4-9-1-1zM157 68c0 0 2 3 3 5 6 8 8 14 8 28 0 11 0 12-3 19-2 4-4 8-6 11-4 6-1 3 4-3 6-8 8-14 8-27 0-11 0-12-3-19-3-6-11-17-11-15zM51 77c-11 13-12 34-1 47 5 6 7 7 2 1-11-15-10-33 2-50 3-4 1-3-3 2zM154 78c7 10 9 24 6 35-1 3-3 8-6 12-4 6-4 6-1 4 2-2 4-5 6-9 8-14 6-30-4-42-5-6-5-5-1 1zM136 77c-4 1-7 1-13 1-4 0-8 0-9 0-1 0-8 32-7 32 0 0 2 0 5-2 6-3 10-2 13 1 2 2 3 3 2 9 0 6 0 7-4 9-2 2-4 3-6 3-6 0-8-7-2-10 2-1 3-2 3-2 0 0 0-1-1-3-2-4-8-4-12 0-3 2-3 3-3 9 0 3 1 7 1 8 3 5 16 6 23 3 11-5 16-21 9-31-3-5-6-6-13-6-4 0-6 0-6 0 0 0 1-3 1-5 1-4 1-5 4-4 1 0 5 1 8 1 6 1 6 0 9-2-2 3-2 3-4 3-7 0-3 0-4 0-4 0-2-3-5-5zM79 91c-1 2-2 9-1 11 1 2 1 2 2 0 1-1 1-4 1-5 0-4-1-7-2-6zM76 105c0 2 0 4 0 4 1 1 2-4 1-6 0 0-1 0-1 2zM77 112c-2 4-2 10 1 13 2 2 1 2-1 0-2-1-3-3-3-5 0-2-1-1-2 3 0 3-1 7-1 9 0 3 0 3 4 3 4 0 5 0 5-2 1-2 1-2 3-2 2 0 2 0 2-2-2 0-2 0-2-2-3-1 0-2 0-6-1-5-2-7-3-4 0 1 0 2-1 2-1 0-1-3 0-5 1-1 1-2 0-4-1-1-1-1-1-3 2zM83 115c0 3 2 10 3 9 1-1 2-7 1-9 0-2-4-2-4-1z" />
  <style>
    path { fill: #000; }
    @media
  </style> 
</svg>