<svg xmlns="http://www.w3.org/2000/svg" width="412" height="412" version="1.0">
    <g fill="#FFF">
        <path
            d="M75.4 275.7c-7.2-7.5-15.4-18.2-15.4-20.2 0-.3.9-.5 1.9-.5 1.3 0 3 1.8 5.2 5.6 1.7 3.1 5.9 9 9.2 13.1 3.2 4 5.7 7.6 5.5 7.8-.2.3-3.1-2.4-6.4-5.8zM330.3 279c8.6-11 11.1-14.6 13.9-19.8 3.8-7.1 4.1-7.4 6.1-6.6 1.6.6 1.6.8-.1 3.7-4.2 7.6-10.3 15-18.8 22.7l-3.8 3.5 2.7-3.5zM223.1 270.5c-7.7-1.7-10.3-3.3-13.9-8.7-2.3-3.6-2.7-5.3-3.1-13.1-.5-13.8 3-20.3 12.8-23.6 8.8-2.9 16.4-.2 17.7 6.5.5 2.8.3 3.1-3.4 4.2-2.2.7-5.4 2.6-7.1 4.4-4.3 4.4-4.4 10.6-.2 14.8 1.6 1.6 3.1 3.5 3.5 4.2.4.7 1.3 2.4 2.1 3.8s1.5 4 1.5 5.8c0 3.7-.3 3.7-9.9 1.7zM140 268.3c0-1.4 1.2-8.6 2.7-15.9 2.6-12.9 2.7-13.3 4-10.3.7 1.7 2.1 4.3 3.2 5.8 1.5 2 2.1 4.8 2.3 10.2.3 7.3.3 7.4 3.1 7.7 2.3.3 2.8.8 2.5 2.5-.3 2.1-.9 2.2-9 2.4l-8.8.2v-2.6zM92.9 265.2c-4.2-4.2-10.8-12.4-13.2-16.4-1.7-2.7-1.7-2.8 0-2.8 1.1 0 3.2 2.4 5.5 6.3 2 3.5 5.8 8.7 8.3 11.5 5.3 5.9 4.9 6.9-.6 1.4zM318.4 262.2c3-4.1 6.8-9.6 8.2-12.3 1.8-3.2 3.4-4.9 4.6-4.9 2.2 0 2.2 0-3.3 8-2 3-6.3 8-9.4 11l-5.7 5.5 5.6-7.3zM104.9 254.3c-6.4-7-13.9-18.4-13.9-21.2 0-2.8 2.7-.6 4.3 3.4 1.8 4.3 7.2 12.9 11.7 18.8 3.1 3.9 1.9 3.3-2.1-1zM307.5 250c2.5-3.6 5.8-9.1 7.3-12.2 1.4-3.2 3.2-5.8 4-5.8.9 0 1.2.6.8 1.8-1.6 4-7.4 12.7-11.9 17.5l-4.8 5.2 4.6-6.5zM163 248.5c0-3.3.4-4.5 1.5-4.5 1.3 0 1.7 1 3 7.3.2 1.2-.3 1.7-2.1 1.7-2.2 0-2.4-.4-2.4-4.5zM155.3 248.8c-2.7-2.8-4.3-7-4.3-10.9 0-2.2.5-2.9 2-2.9 1.1 0 2 .5 2 1.2 0 .6.7 1.9 1.6 2.9 1 1.2 1.4 3.2 1.2 6.9l-.3 5.2-2.2-2.4zM169.2 241.8c-3.7-12.9-3.7-12.8-1-12.8 3.5 0 6 7.6 4.7 14.4-.5 2.7-1.1 5.1-1.3 5.3-.1.2-1.2-2.9-2.4-6.9zM355 239.6c0-3.2.3-3.6 2.5-3.6 2.4 0 2.5.1 1.2 3.2-1.9 4.6-3.7 4.8-3.7.4zM154 222.6c0-.8.8-2.4 1.9-3.7l1.8-2.3.5 3.7c.4 3.3.2 3.7-1.9 3.7-1.3 0-2.3-.6-2.3-1.4zM162 221c-.6-1.1-1.2-3.7-1.3-5.7-.2-3.2.1-3.8 1.9-4.1 1.8-.3 2.2.4 2.8 4.4.3 2.6.6 5.3.6 6 0 2.1-2.8 1.7-4-.6zM274 217.5c0-3.3.4-4.5 1.5-4.5.8 0 1.5.3 1.5.8 0 .4.4 2.4.9 4.5.8 3.5.8 3.7-1.5 3.7-2.2 0-2.4-.4-2.4-4.5zM358.4 216.8c.3-1.3.6-3.5.6-5 0-2.1.5-2.8 2-2.8 1.7 0 2 .7 2 5 0 4.7-.1 5-2.6 5-2.2 0-2.5-.3-2-2.2zM215 217.1c0-.4 1.8-9.4 4-20s4-19.4 4-19.7c0-.2 1.3-.4 2.9-.4 2.9 0 3 .1 3.5 6.3.3 3.4.7 10.9.9 16.7l.4 10.5-7.8 3.7c-4.4 2-7.9 3.4-7.9 2.9zM151.1 212c1.4-7.6 1.7-8.2 1.8-2.9.1 2.5-.5 5.4-1.3 6.4-1.2 1.7-1.3 1.3-.5-3.5zM156 203.6c0-.8-.3-2.1-.6-3-.5-1.2 0-1.6 2-1.6 2.8 0 3.2 1 1.6 4.1-1.2 2.2-3 2.5-3 .5zM359 195.6c0-3-.3-6.1-.6-7-.5-1.2 0-1.6 2-1.6 2.6 0 2.6.1 2.6 7 0 6.3-.2 7-2 7s-2-.7-2-5.4zM155 196.8c0-3 1.3-5.8 2.6-5.8.9 0 1.4 1.2 1.4 3.5 0 2.8-.4 3.5-2 3.5-1.1 0-2-.6-2-1.2zM135.8 193.7c-4.5-1.5-8.5-4.9-9.9-8.4-1.4-3.7-1.3-21 .1-26.3 2.8-10.5 9-19.2 17.9-25 5.3-3.5 11.8-4.1 14.3-1.2 2.2 2.5 3.4 10.2 1.6 10.2-.8 0-3.5 1.3-6.1 3-9.9 6.3-13.6 22.5-10.2 44.8.7 3.9.6 4.2-1.6 4.1-1.3 0-4.1-.6-6.1-1.2zM157.8 182.3c.5-2.5.6-2.5 1.3-.8 1.1 2.9 1 3.5-.5 3.5-.9 0-1.2-.8-.8-2.7zM355.6 173.8c-1-3.8-.7-4.8 1.4-4.8 1.6 0 2 .7 2 3.5 0 4-2.4 4.9-3.4 1.3zM272 172.5c0-1.6.6-2.5 1.5-2.5.8 0 1.5-.7 1.5-1.5 0-.9.9-1.5 2.5-1.5 3.2 0 3.2 1.1-.1 4.9-3.1 3.8-5.4 4-5.4.6zM93.6 165.8c3.2-5.4 8.8-12.9 12-15.8l3.7-3.5-4.5 6c-2.5 3.3-5.5 7.9-6.7 10.3-1.2 2.3-2.8 4.2-3.7 4.2-.9 0-1.2-.5-.8-1.2zM311.4 160.8c-2.1-3.5-5.3-8.3-7.2-10.8l-3.5-4.5 4.6 5c7 7.6 13.1 16.5 11.3 16.5-.8 0-3.1-2.8-5.2-6.2zM325.2 152.6c-1.8-3-5.3-7.9-7.7-11-5.8-7-3.3-6.3 2.9.8 6.8 7.8 10.3 12.9 9.8 14.4-.7 2.1-1.7 1.3-5-4.2zM80.7 156.4c-1-1.1 3.5-7.4 10.5-14.7 6.6-6.8 6.7-6.9 2.5-1.6-2.5 3.1-6 8.2-7.8 11.3-3.3 5.5-4 6.2-5.2 5zM343.4 143.8c-.9-1.8-4.7-7.2-8.5-12-3.8-4.9-6.7-8.8-6.4-8.8 1.5 0 10.5 9.6 10 10.7-.2.8-.1 1.1.5.8 1.3-.8 9 9.3 8.3 11-.8 2.3-2.1 1.8-3.9-1.7zM64.3 144.3c-.9-.3.2-2.4 3.1-6.1 5.1-6.6 14.6-16.1 14.6-14.6 0 .6-1.5 2.5-3.4 4.3-1.9 1.8-5.4 6.4-7.7 10.2-2.4 3.8-4.6 6.9-4.9 6.8-.3 0-1.1-.3-1.7-.6zM223.5 119.3c.2-1 .7-3.5 1-5.6.3-2.1.9-3.6 1.3-3.3.4.2.8-1.4.9-3.5.2-5.3.9-7 2.7-6.3 1.2.5 1.3 1.1.6 2.5-.6 1-1.2 3.9-1.4 6.3-.2 2.4-.6 4.8-.8 5.2-.3.5-.8 2.1-1.2 3.7-.7 2.9-3.6 3.9-3.1 1zM193.5 118.3c.3-1 1-3.9 1.5-6.6 1-4.8 2.6-8.7 3.7-8.7.3 0 .2 1.2-.1 2.8-.4 1.5-.9 4-1.2 5.7-.7 3.3-3.1 8.5-4 8.5-.4 0-.3-.8.1-1.7zM187 117.1c0-1.2.7-2.4 1.5-2.8 2.4-.9 2.5 0 .4 2.6-1.9 2.3-1.9 2.3-1.9.2zM212.3 108.9c.5-5.5 1.9-9 3.1-7.8.2.2.2 3.4-.1 7.2-.4 5-.9 6.7-2.1 6.7-1.2 0-1.4-1.1-.9-6.1zM219.7 114.3c-1.2-.3-1.5-1.1-1.2-2.6.3-1.2.9-4 1.3-6.1.4-2.2 1.4-4.2 2.1-4.4 1.1-.4 1.2.3.6 3.4-.4 2.2-.7 5.4-.7 7.2 0 1.7 0 3.1-.1 3.1-.1-.1-1-.3-2-.6zM240 113.5c-1.6-1.9-.7-8.1 1.6-10.6 2-2.2 4.2-2.4 6.6-.5 1.5 1.1 1.6 1.8.7 4.7-1.3 3.8-4.6 7.9-6.5 7.9-.6 0-1.7-.7-2.4-1.5zm6-3.1c.6-1.4 1-3.9 1-5.5 0-2.4-.4-3-1.7-2.7-2 .4-4.6 6.9-3.7 9.3.9 2.3 3.3 1.8 4.4-1.1zM201.3 111c.4-1.8.7-4.2.7-5.4 0-3 1.7-5.3 2.9-4.1 1.3 1.4-1.1 11.7-2.9 12.3-1 .4-1.1-.3-.7-2.8zM232 112c1.7-1.7 2.1-3.1 1.8-6.6-.3-4.4.6-5.2 2.6-2.1 1.7 2.7-1.3 10.1-4.2 10.5l-2.4.4 2.2-2.2zM187.8 110.3c-1.4-.3-1.8-1.5-1.8-5.5 0-4.1.5-5.4 2.9-7.9 3.9-3.9 6-3.7 2.7.2-3.2 3.8-3.7 11.2-.8 12.8 1.8 1.1.4 1.3-3 .4zM208.5 103c-1.9-.8-1.9-.9.2-.9 1.2-.1 2.5.4 2.8.9.7 1.2-.2 1.2-3 0zM198 96.8c0-1.2.3-1.8.7-1.4 1.1 1 1.2 3.6.2 3.6-.5 0-.9-1-.9-2.2z" />
    </g>
    <g fill="#FFF">
        <path
            d="M230 270.4c0-.9-.8-2.3-1.7-3.1-1-.8-1.2-1.2-.5-.8 1.6.8 1.5-.4-.1-2.4-1.7-2-4.1-8-3.5-8.6.6-.6 10.5 4.1 11.3 5.4.3.6.9 3.3 1.2 6.1l.6 5h-3.7c-2.7 0-3.6-.4-3.6-1.6zM149.6 268.8c-.3-1.3-.6-5.1-.6-8.5 0-6.9-1.4-11-4-11.5-1.4-.3-1.5-.8-.7-3.8l.9-3.5 2.2 3c1.1 1.6 3.6 4.5 5.5 6.3 2.4 2.4 3.1 3.6 2.2 4.1-.8.5-1.1 2.5-.9 5.2.2 3.6.7 4.5 2.4 4.7 1.6.2 2 .8 1.7 2.6-.4 1.7-1 2.2-2.4 1.9-1-.3-1.9 0-1.9.6 0 2.1-3.8 1.1-4.4-1.1zM61.8 257.9c-2.4-1.3-2.3-2.9.2-2.9 1 0 2.4.9 3 2 1.2 2.3-.2 2.7-3.2.9zM348.3 256.3c-1.7-.6-1.6-2.5.1-4.8 1.2-1.7 1.5-1.7 2.9-.4 1.3 1.4 1.3 1.8-.2 3.6-.9 1.1-2.2 1.9-2.8 1.6zM158.3 251c-2.9-1.7-3.3-2.5-3.3-6.4 0-4.1-1.9-7.4-3.3-5.9-.4.3-.7-1.4-.7-3.8 0-6 2.9-13.9 5.1-13.9 2.6 0 2.9 2.3.8 7-2.2 4.8-2.4 9.1-.7 10.8 1.9 1.9 3.8 1.4 3.8-1 0-2.8 1.6-5.5 2.6-4.5.4.4.8 2.3.8 4.2.1 1.9.4 3.5.9 3.5.4 0 .7 1.1.7 2.5s.4 2.5.9 2.5c.4 0 .6 1.2.3 2.6-.3 1.6.1 3 .9 3.5 1 .6.3.9-2.1.9-1.9 0-5-.9-6.7-2zM77.6 245c-3.1-5.7-3.2-6-.6-6 1.5 0 2.2.9 2.7 3 .3 1.7.9 3 1.3 3 1.4 0 1.8 3.9.5 4.4-.7.2-2.3-1.5-3.9-4.4zM329.3 248.4c-.8-.4-.6-1.6.5-4.4 1.2-2.9 2.3-4 3.9-4h2.2l-2.6 4.5c-1.3 2.5-2.5 4.5-2.6 4.4-.1 0-.7-.3-1.4-.5zM353 244.6c0-2 .5-3.6 1-3.6.6 0 1-1.3 1-3 0-2.5.4-3 2.5-3 1.4 0 2.5.1 2.5.3 0 .1-1 2.9-2.3 6.2-2.7 7-4.7 8.3-4.7 3.1zM168.9 236c-.7-2.2-1.6-4-2.1-4-.4 0-.8-.7-.8-1.5 0-2.1 4.3-1.9 6.3.3 1 1 1.7 3.5 1.7 5.5 0 3-.4 3.7-2 3.7-1.4 0-2.2-1.1-3.1-4zM317.2 235.1c-.9-.6-.9-1.1.1-2.5 2-2.7 3.9-1.7 2.4 1.1-.8 1.4-1.7 1.9-2.5 1.4zM91 234.1c0-.5-.3-1.6-.6-2.5-.4-1-.1-1.6.9-1.6 1.4 0 2.7 2 2.7 4.1 0 .5-.7.9-1.5.9s-1.5-.4-1.5-.9zM217 227.2c0-.5.9-1.2 2.1-1.5 1.3-.3 1.9-.1 1.6.6-.5 1.5-3.7 2.2-3.7.9zM171.5 224c-1.1-.5-3.4-.9-5.2-.9-2.7-.1-3.2-.6-3.9-3.3-.4-1.8-.7-3.7-.5-4.2.1-.5-.3-1.2-.8-1.6-1.4-.8 2.9-13 4.5-13 .7 0 1.4 1.5 1.7 3.3 2 11.4 3.1 14.7 4.9 14.7 1.3 0 1.8.8 1.8 3 0 1.7-.1 3-.2 2.9-.2 0-1.2-.4-2.3-.9zM359.6 212.8c-1.1-4.2-.7-5.8 1.4-5.8 1.7 0 2 .7 2 4 0 4.5-2.3 5.7-3.4 1.8zM227.2 207.8c-.6-1.8-1-7.3-1-12.3 0-14.1-.1-15.5-1.2-15.5-.5 0-1 1.1-1 2.4 0 2.1-1.6 4.5-2.4 3.5-.1-.2 1.2-7.6 2.9-16.4l3.2-16 3.7.1c2 .1 3.9.3 4.1.6.2.2.5 6 .6 12.8.1 9.8-.3 14.3-2 20.9-2.4 9.7-2.5 10.5-.9 9.5.7-.5.9 0 .6 1.4-.5 1.7.2 2.6 2.8 4.3 2.4 1.4 3.4 2.8 3.4 4.5 0 2.1-.5 2.4-3.7 2.4-2.1 0-4.8.3-5.9.6-1.8.5-2.4 0-3.2-2.8zM268 207.5c0-.8-.4-1.5-1-1.5-.5 0-1-.9-1-2 0-1.3-.7-2-2-2-1.6 0-2-.7-2-3 0-3 0-3 2.8-1.6 3 1.6 6 4.6 8.7 8.9l1.7 2.7h-3.6c-2.5 0-3.6-.4-3.6-1.5zM155.5 200.9c-.4-.6-.4-3.1 0-5.5.5-3.9.9-4.5 2.8-4.2 2.5.3 3.2 2.5 2.2 7.4-.4 2.4-1.1 3.4-2.5 3.4-1 0-2.2-.5-2.5-1.1zM359 200.8c0-3 1.3-5.8 2.6-5.8.9 0 1.4 1.2 1.4 3.5 0 2.8-.4 3.5-2 3.5-1.1 0-2-.6-2-1.2zM166.2 193.5c.1-2.7.6-3.5 2-3.5s1.8.8 1.8 3.5c0 2.8-.4 3.5-2 3.5s-1.9-.6-1.8-3.5zM163.1 180.9l-3.5-7 1.7-8.6c.9-4.7 1.8-8.8 2-9 1.3-1.2 5.6 1.1 6.2 3.4 1.4 5.7-.1 28.3-1.9 28.2-.6 0-2.6-3.2-4.5-7zM355.3 171.5c-1.1-3.3-1-3.5 1.3-3.5 2.1 0 2.4.5 2.4 3.5 0 2.2-.5 3.5-1.3 3.5s-1.8-1.6-2.4-3.5zM92 170c0-2 2.4-6 3.7-6 1.7 0 1.6.4-.2 4-1.5 2.9-3.5 4-3.5 2zM277 166.5c0-2.8.4-3.5 2-3.5 2.2 0 2.6 2 1 5.1-1.6 3-3 2.3-3-1.6zM329 159c-2.2-4.4-2.5-6-1-6 1.4 0 5 6 5 8.3 0 2.9-1.9 1.9-4-2.3zM350.7 159.3c-.2-1-.8-2.6-1.2-3.5-.6-1.5-.2-1.8 1.9-1.8 2.3 0 2.6.4 2.6 3.5 0 3.7-2.3 5-3.3 1.8zM78.5 159.1c-.7-1.2 4.1-6.9 5-5.9.8.8-2.2 6.8-3.5 6.8-.5 0-1.1-.4-1.5-.9zM126.3 157.7c.4-1 .7-2.3.7-2.8s.7-.9 1.5-.9c2.1 0 1.9 1.4-.7 3.6-2 1.8-2.1 1.8-1.5.1zM129.4 150.4c.3-.9.6-2 .6-2.5s2.9-3.8 6.4-7.4c7-7.1 16.2-12.2 27.1-15 7.8-2 9.5-1.9 9.5.4 0 1.4-1 2.1-3.5 2.5-3.5.7-3.5.7-3.5 6 0 5.9-1.2 7.6-5.7 7.9-2.3.2-2.8-.2-3.1-2.4-.2-1.5-1.2-3.5-2.2-4.4-1.8-1.7-2.2-1.7-6.2 0-5.5 2.2-14.8 10.1-16.2 13.7-.6 1.6-1.7 2.8-2.4 2.8-.9 0-1.2-.6-.8-1.6zM61.3 149.2c-1.6-1 3-8.2 5.2-8.2 1.9 0 1.9.3-.5 5-2.1 4.1-2.7 4.5-4.7 3.2z" />
    </g>
    <g fill="#FFF">
        <path
            d="M233.6 268.3c-.6-2.7-1.9-4.8-4.9-7.4-4.5-4-4.6-5.6-.3-3.9 4.5 1.7 11.8 1.2 15.4-1 3.6-2.2 8.7-9.7 9.7-14.1.4-1.7 1.3-2.9 2.2-2.9 2 0 1.4 6.8-1.1 12-2.6 5.6-6 11.5-6.9 11.8-.4.2-.5 1.9-.1 3.7.6 3.6.9 3.5-9.2 5l-4.2.6-.6-3.8zM151.7 267.3c-.2-.5-.8-4.1-1.1-8-.7-7.1-.6-7.3 1.5-7.3 1.2 0 3.6.9 5.4 2 1.7 1.1 4.8 2.2 6.9 2.4 5 .7 5.7 1.3 5 4.4-1.2 5.4-1.4 5.9-2.5 4-1.4-2.6-5.4-2.2-7.7.7-1.9 2.4-6.5 3.5-7.5 1.8zM58 252.8c-3.5-6.2-3.9-9.8-1.1-9.8 1.3 0 2.7 2 5 7 1.7 3.9 3.1 7.2 3.1 7.5 0 .3-.9.5-2 .5-1.3 0-2.9-1.7-5-5.2zM349 255c-1.3-.8-1.2-1.8.9-7.2 3.6-9.6 7-21.6 7.7-26.9.4-2.7 1.1-4.9 1.6-4.9.6 0 .7-2.6.3-6.5-.9-7.9 0-13.5 2.1-13.5 1.3 0 1.5 2.1 1.3 15.3-.2 14-1.2 20.4-3.8 26.2-.5 1.1-1.9 4.5-3 7.5-3.1 7.9-5.3 11.1-7.1 10zM158.8 251.4c-2.1-1.1-2.8-2.2-2.8-4.4 0-3.9 1.9-3.9 2.6-.1.4 2 1.1 2.8 2 2.4 2.1-.8 1.7-4-.8-6.5-1.4-1.4-1.8-2.3-1-2.6.7-.2 1.2-1.6 1.3-3 0-1.5.3-2.1.6-1.4.2.6 1 1.2 1.7 1.2s2 2.1 2.8 4.8c1.4 4.1 1.4 5 .1 7.6-.8 1.5-1 2.5-.5 2.2.6-.4 1.3-.3 1.6.2.9 1.4-4.8 1.2-7.6-.4zM271 247.5c0-3.1.3-3.5 2.5-3.5 2.9 0 3 .2 1 4-2.1 4-3.5 3.8-3.5-.5zM76.1 242c-1.7-3.3-3.1-6.3-3.1-6.5 0-.3.9-.5 2-.5 1.3 0 2.4 1 3.1 2.8.6 1.5 1.7 4 2.5 5.5 1.8 3.6 1.8 4.7 0 4.7-.8 0-2.9-2.7-4.5-6zM144 245.6c0-2.1 2-3 3.3-1.7.9.9.8 1.4-.3 2.1-2.1 1.4-3 1.2-3-.4zM332 243c-1.1-.7-1.1-1.3 0-4 1.4-3.4 4.8-3.9 4.2-.5-.6 3.2-2.6 5.5-4.2 4.5zM171.8 238.9c-2-1.1-2.5-6.4-.7-7.5 1.8-1.1 3.1 1.1 2.7 4.9-.3 3.1-.5 3.4-2 2.6zM49.3 231.5c-1.1-3.3-1-3.5 1.3-3.5 2.1 0 2.4.5 2.4 3.5 0 2.2-.5 3.5-1.3 3.5s-1.8-1.6-2.4-3.5zM151 231.4c0-2.6.1-2.7 2.4-1.8 2.2.9 2 3.1-.4 3.7-1.6.4-2 0-2-1.9zM317.4 232.3c.2-1 .7-2.8 1.1-4 .4-1.4 1.4-2.3 2.6-2.3 1.8 0 1.9.2.4 3.6-.8 2-1.5 3.8-1.5 4 0 .2-.7.4-1.6.4-1 0-1.4-.6-1-1.7zM90 231c-.9-1.7-.8-2 .8-2 1.1 0 2.2.9 2.5 2 .3 1.3 0 2-.9 2-.7 0-1.8-.9-2.4-2zM275 229.8c0-1.8-.3-5.7-.6-8.5-.6-4.2-.4-5.3.8-5.3 2 0 3.8 5.7 3.8 11.8 0 4.5-.3 5.2-2 5.2-1.6 0-2-.7-2-3.2zM216.5 227c.3-.5 1.5-1 2.6-1s1.7.5 1.4 1c-.3.6-1.5 1-2.6 1s-1.7-.4-1.4-1zM173.3 224.8c-1.3-.6-2.3-1.4-2.3-1.8 0-.4-1.1-.5-2.4-.3-2.4.5-2.5.3-2.4-4.6 0-3-.6-6.1-1.5-7.4-1.5-2.4-1.2-6.4 1.2-14.6.6-1.9.9-3.7.6-4.1-.4-.7-.6-8.5-.4-20.5.1-11.1.1-11.5-1.6-11.5-1.9 0-1.9-1.9 0-9.5 1.9-8.1 1.9-8.5-1-8.5-1.8 0-2.5-.5-2.5-1.9 0-1.1.5-2.3 1-2.6.6-.3 1-1.9 1-3.6 0-2.6-.3-2.9-3.3-2.9-1.7 0-4.8.4-6.6 1-5.5 1.6-4.8.3 1.2-2.4 8.9-3.9 20.1-6.6 27.5-6.6 4 0 7.3-.5 8-1.2.8-.8 1.2-.8 1.2-.1 0 .6 3.4 1.3 8 1.7 7 .7 8 1 8 2.7 0 1.7-.8 1.9-7.7 1.9-6.3 0-8.3.4-10.9 2.2-3 2.1-3.3 2.7-3.6 8.8-.5 11-.2 12 4.2 12h3.8l-2.9 13.7c-1.7 7.5-2.8 14.2-2.5 14.8.3.8 2.3 1 6 .7l5.6-.4v3.1c0 3.1-.1 3.1-5 3.1-5.6 0-6.5 1-7.6 7.8-.4 2.5-1.2 4.2-2.3 4.5-1.2.3-2.3 3.9-4.5 14-1.6 7.6-3.1 13.7-3.5 13.6-.3 0-1.6-.5-2.8-1.1zM155 223.5c0-1 .7-1.5 1.8-1.3 2.1.4 1.9 2.2-.2 2.6-1 .2-1.6-.3-1.6-1.3zM271.4 214.2c-.6-.4-1.8-2.1-2.7-3.8-1.9-3.8-7-8.2-11.5-10.1-3-1.2-3.6-1.2-6.2.7-2.7 1.9-2.9 2.4-2.3 7.2l.6 5.1-2.4-1.6c-1.3-.9-3.8-1.7-5.5-1.7-3 0-5.1-1.3-10.6-6.3-2.2-2.1-2.1-6.2.2-6.2.8 0 3.9-.7 6.9-1.7 8.6-2.8 22.5-2 26.4 1.5.7.7 2.2 1.7 3.2 2.4 1.1.6 1.9 1.6 1.8 2.2-.2.6.4 1.1 1.3 1.1 1 0 1.4.6 1 1.5-.3.9 0 1.5.8 1.5 1.1 0 4.6 6.5 4.6 8.5 0 .8-4.4.6-5.6-.3zM339 197.5c0-2.8.4-3.5 2-3.5s2 .7 2 3.5-.4 3.5-2 3.5-2-.7-2-3.5z" />
        <path
            d="M156.6 194.3c-.9-2.3-.7-5.7.6-9.3 1-3.1 1.2-3.2 2.5-1.5.7 1.1 1.3 4 1.3 6.6 0 3.8-.4 4.8-1.9 5.2-1.2.3-2.2-.1-2.5-1zM359.3 190.3c-.6-1.6-1.3-4.5-1.6-6.5-.5-3.5-.4-3.8 1.7-3.8 1.9 0 2.5.7 3 3.8.9 5.9.7 9.2-.7 9.2-.6 0-1.7-1.2-2.4-2.7zM51.3 172.8c.4-2.9 1.1-5.4 1.7-5.6.5-.2 1-1.9 1-3.8 0-3 .3-3.4 2.5-3.4 2.7 0 3 .7 1.5 4.2-.5 1.3-1.7 4.9-2.5 8.1-1.1 3.8-2.2 5.7-3.2 5.7-1.3 0-1.5-.9-1-5.2zM232.8 177.4c-.4-.3-.4-5.2-.2-10.9l.4-10.3-2.7-1-2.8-1 3.5-.1c1.9-.1 8.8.4 15.3 1.1 10.1 1.1 11.7 1.5 11.7 3 0 1-.7 1.8-1.7 1.8-3.2 0-9.4 3.4-8.8 4.8.3.7.5 2 .5 2.7 0 .8 1.8 1.9 4 2.5 3.3.9 4 1.5 4 3.5 0 3-1.9 3.2-10 1-7.3-2-7.9-1.9-9 1-.9 2.3-2.9 3.3-4.2 1.9zM271 173.9c0-1.1.9-2.9 2-4.1 1.1-1.2 2.6-3.4 3.2-5 .9-1.8 2-2.8 3.5-2.8 2 0 2 .2 1 3.5-1.9 6.2-9.7 13-9.7 8.4zM90 174c0-1.8 3-7 4-7 1.3 0 1.3.7-.2 4.7-1.1 3-3.8 4.7-3.8 2.3zM314.7 166.8c-.4-1.2-.4-2.4-.2-2.6.7-.8 3.5 2 3.5 3.4 0 2.3-2.7 1.6-3.3-.8zM332.1 166.3c-.5-1-1.3-3.4-1.9-5.3-.5-1.9-1.3-4.3-1.7-5.2-.4-1-.3-1.8.3-1.8 1.6 0 6.2 8.5 6.2 11.4 0 3-1.5 3.4-2.9.9zM76.7 163.4c-.9-1 2.5-7.4 4-7.4 1.7 0 1.6 1.4-.2 5-1.5 2.9-2.6 3.6-3.8 2.4zM126.5 157c2.6-8.6 8.1-16 15.2-20.4 5.5-3.3 6.4-3.3 2.1.1-7.5 6-10.9 9.9-11.9 13.5-.5 2.1-2.1 5-3.6 6.5l-2.6 2.8.8-2.5zM271 155.6c0-1.2 6.7-3.6 9.9-3.6 2.1 0 1.1 3.8-1.1 4.4-4.2 1.1-8.8.7-8.8-.8zM346.5 149.8c-2.8-5.8-3.1-7.8-1.2-7.8 1.9 0 6.6 8.5 6 10.9-.8 3.3-2.1 2.5-4.8-3.1zM58.4 151.3c2.6-5 4-6.3 5.6-5.3 1.2.8 1.2 1.3-.3 4.4-1.3 2.7-2.3 3.6-4.2 3.6-2.5 0-2.5-.1-1.1-2.7zM227 144c0-2.3.4-3 2-3 1.4 0 2-.7 2-2.2.1-1.3.7-3.4 1.4-4.7 1-1.8 1.1-3.1.2-5.2-1.2-3.3-.4-4.4 3.7-5.4 2.5-.7 2.7-.5 2.7 2.4 0 4.4-3.5 13-7.1 17.4-3.7 4.5-4.9 4.7-4.9.7z" />
    </g>
    <g fill="#FFF">
        <path
            d="M243.4 268.6c-2.1-1.1-2.1-1.4-.8-4.6.8-1.9 1.8-3.7 2.2-4 .5-.3 1.6-2.2 2.5-4.2 1-2 2.2-4 2.7-4.3.5-.3 1.9-3.5 3-7.1 3.8-12.4 2.1-25.5-3.9-30.8-1.2-1.1-3.1-3.4-4.2-5.2-1.8-3-1.9-3.5-.5-6.2.8-1.6 2.7-3.7 4.2-4.7 5.8-3.7 17 .6 22.1 8.5 1.2 1.9 3.2 4.4 4.3 5.5 1.2 1.2 2 3.4 2 5.2 0 1.8.5 3.5 1 3.8.6.3 1 1.5 1 2.6 0 1.4-.7 1.9-3 1.9-2.8 0-3-.2-3-4 0-2.2-.4-4-.8-4-.5 0-1.7-1.8-2.7-4-2-4.4-7.6-10-10.1-10-2.8 0-3.9 4.5-2 9.3 1.3 3.4 1.6 7.9 1.6 21.7 0 9.6-.4 19.2-.9 21.3-.9 3.6-.8 3.8.8 2.3 1.9-1.7 10.1-2.3 10.1-.7 0 1.7-7.4 7.4-13.4 10.2-6.5 3.1-8.9 3.4-12.2 1.5zM158.3 263.2c-2-.3-3.9-2.9-2.9-4 .3-.2 2.3-.8 4.4-1.2 4.3-.7 7.2.6 6.4 2.9-.3.9 0 1.1.8.6.8-.5 1.1-.4.7.2-.7 1.2-5.9 2-9.4 1.5zM58.6 252.8c-2.2-2.4-6.6-12.9-6.6-15.8 0-1.6.5-2.1 2.2-1.8 1.6.2 2.6 1.6 3.9 5.6 1.3 3.7 1.4 5.2.6 5.2-.7 0-.2.8 1 1.8 1.2.9 2.7 2.9 3.2 4.5.9 2.3.8 2.7-.7 2.6-.9 0-2.5-1-3.6-2.1z" />
        <path
            d="M269 251.5c0-3.1.3-3.5 2.5-3.5 2.9 0 3 .2 1 4-2.1 4-3.5 3.8-3.5-.5zM162.7 250.6c-.4-1-.7-2.8-.7-4.1 0-1.3-.4-2.7-1-3-1.3-.8-1.3-3.5-.1-3.5.5 0 1.3.9 1.6 2 .3 1.1 1.3 2 2.1 2 1.8 0 1.8 4 .1 6.4-1.3 1.8-1.4 1.8-2 .2zM350.8 248.3c.6-.2 1-.9.6-1.4-.3-.5.2-1.7 1.1-2.6 1.2-1.2 1.3-1.8.4-2.3-.8-.6-.6-1.1.8-1.8 1.8-1 4-6.5 4.1-10.2.1-.8.3-2.4.5-3.5s0-2.2-.4-2.5c-.5-.3-.1-2.2.9-4.3 1.2-2.6 2.3-3.6 4-3.7 1.8 0 2.2.4 1.8 1.8-.2.9-.8 3.2-1.1 5.1-.4 1.9-1.8 5.4-3.1 7.9-1.3 2.4-2.1 4.9-1.8 5.4.3.5-.2 1.6-1.2 2.3-1.1.9-1.4 1.4-.6 1.5.6 0 1.2.5 1.2 1.1 0 .5-.4.7-1 .4-.6-.3-1 .5-1 1.9 0 4.1-1 5.6-3.9 5.5-1.4 0-2-.3-1.3-.6zM78.5 245.2c-.9-.6-3.5-5.6-3.5-6.7 0-.3.9-.5 2-.5s2 .6 2 1.3c0 .6.7 2.4 1.4 4 1.5 2.7.5 3.7-1.9 1.9zM333.8 239.9c-1.4-.8-1.3-1.6.5-7.9 1.2-4 2.7-7 3.4-7 1.9 0 1.6 7-.5 11.8-1.4 3.1-2.1 3.8-3.4 3.1zM48.7 228.8c-.9-2.9-1.9-7.7-2.2-10.5-.6-4.8-.5-5.3 1.3-5.3 1.6 0 2.1 1.2 3.2 6.8 2.2 12.2 2.4 14.2.7 14.2-.9 0-2-2-3-5.2zM70.6 229.8c-1-3.8-.7-4.8 1.4-4.8 1.6 0 2 .7 2 3.5 0 4-2.4 4.9-3.4 1.3zM88.6 228c-2-5-2-5 .2-5 1.3 0 2.2 1.2 3 3.9 1.5 4.9 1.5 5.1-.2 5.1-.8 0-2.1-1.8-3-4zM319.8 229.2c-1.3-.2-1.5-.9-.8-3 .5-1.5 1.1-3.9 1.4-5.4.7-2.9 3-3.8 3.8-1.5.3.6-.2 3.2-1.1 5.7-1.2 3.3-2.1 4.5-3.3 4.2zM46.8 210.3c-2.3-.6-2.5-7.8-.3-9.9 1-1.1 1.5-3.6 1.5-8.5 0-6.8 0-6.9 2.6-6.9 2 0 2.5.4 2 1.6-.3.8-.6 6.7-.7 13-.1 12.2 0 12.1-5.1 10.7zM359.8 207.7c-.2-1.8-.2-5.4 0-8 .3-3.8.8-4.7 2.3-4.7 1.7 0 1.9.8 1.9 8s-.2 8-1.9 8c-1.4 0-2-.9-2.3-3.3zM191.6 198.3c-8.5-.4-11.9-2.1-9.6-4.8.6-.7 1.3-2.4 1.5-3.7.1-1.3.9-3.7 1.6-5.5 1.6-3.8 3.5-4.3 17.6-4.3 8.1 0 10.5.3 10.9 1.5.5 1.3-2.1 14.8-3.1 16.5-.3.4-1.6.5-3 .2-2-.3-2.5-1-2.5-3.4 0-1.6.5-3.8 1.1-4.9 1-1.9.8-1.9-3.3.2-4.1 2.2-4.2 2.3-1.8 2.9 1.8.4 2.6 1.4 2.8 3.3.3 2.3 0 2.7-2 2.5-1.3-.1-5.8-.4-10.2-.5zM196 182c0-.5-.9-1-1.9-1-1.1 0-2.3.5-2.6 1-.4.6.5 1 1.9 1s2.6-.4 2.6-1zM339 194.8c0-1.3-.3-3.3-.6-4.5-.5-2-.2-2.3 2-2.3 2.4 0 2.6.3 2.6 4.5 0 3.8-.3 4.5-2 4.5-1.4 0-2-.7-2-2.2zM360.1 189.3c-.7-2.7-1.6-5.5-2.1-6.3-.4-.9-1.1-3.6-1.4-6-.8-4.7-4.8-16.6-7.2-21.2-1.8-3.4-1.8-6.8 0-6.8s7.1 9.4 8 14.3c.4 2 1 3.7 1.5 3.7 1.3 0 3 6.9 1.8 7.3-.6.2.1 2.9 1.7 6.9 3.2 8 3.5 12.8.7 12.8-1.4 0-2.1-1.2-3-4.7zM157.1 190.2c0-1.5.3-2.1.6-1.4.2.6 1.1 1.2 1.9 1.2 2.1 0 1.7 1.7-.6 2.3-1.6.4-2 0-1.9-2.1zM180.6 178.4c-.9-2.4 1.2-8.4 3-8.4.8 0 1.4 1 1.4 2.4 0 1.3.6 2.7 1.3 2.9.7.3.5.6-.5.6-.9.1-2.3 1-3.1 2.1-1.3 1.9-1.5 1.9-2.1.4zM50 175.8c.1-1.8.7-4.4 1.5-5.8.8-1.4 1.4-3.8 1.5-5.3 0-3.1 6.2-16.5 6.8-14.8.2.6 1 1.1 1.9 1.1.8 0 1.3.3 1.1.8-.2.4-1.2 3.1-2.3 6-1.1 2.8-2.3 5.2-2.7 5.2-.5 0-.8 1.3-.8 2.8 0 1.6-.3 3.2-.7 3.6-.4.3-.8 1.3-1 2.1-.2.8-.5 2.3-.7 3.3-.3.9-.5 2.3-.5 3-.1.6-1 1.2-2.1 1.2-1.6 0-2-.7-2-3.2zM88.6 178.2c-.7-1.1 2.1-7.2 3.4-7.2 1.1 0 1.3 2.3.4 5.8-.6 2.1-2.8 3-3.8 1.4zM255.5 176.3c-1.1-.3-2.2-.9-2.5-1.4-.3-.4-2.3-1.4-4.5-2.1-3.8-1.3-3.9-1.4-4.3-6.8l-.3-5.6 4-1.7c2.1-1 7.9-2.2 12.7-2.8 7.4-.8 10.5-1.3 16.9-2.9 3.4-.8 4.5.1 4.5 3.6v3.5l-4.4-.6c-5.2-.8-14 1.4-17.9 4.6-2.6 2-2.6 2.1-.9 4.4.9 1.3 2.9 2.6 4.5 2.9 2.1.4 2.7 1.1 2.7 3.1 0 2.3-.3 2.5-4.2 2.4-2.4-.1-5.2-.4-6.3-.6zM333.8 170.8c-2.5-8.2-3.1-11.8-1.9-11.8 1.7 0 6.1 9.6 6.1 13.5 0 5.3-2.4 4.3-4.2-1.7zM72.1 174.1c-1.1-.7-.7-2.1 1.8-7.5 1.8-3.6 3.8-6.6 4.7-6.6 1.8 0 1.8-.1-.8 8.1-2.3 6.8-3 7.7-5.7 6zM316.4 171.5c-2.9-7.1-.8-9.1 2.6-2.5 2 3.9 2 6-.1 6-.6 0-1.7-1.6-2.5-3.5z" />
        <path
            d="M274 170.8c0-2.1.5-3.8 1-3.8.6 0 1-.7 1-1.5 0-.9.9-1.5 2.4-1.5 3.1 0 2.6 2.4-1.4 7.1l-2.9 3.4-.1-3.7zM183.8 166.4c-1-2.1-.9-3.1.5-5.5 1.4-2.5 1.4-3.1.2-3.5-2-.8-3.5-9.6-3.2-19.1.3-7.2.6-8.4 2.7-10.2 1.4-1.1 2.8-2 3.3-2.1.4 0 .7-.6.7-1.4 0-.7.6-1.8 1.3-2.4 1-.8 1.6-.7 2.6.7 1.2 1.6 3.2 1.8 20.7 1.9 10.7.1 20.5-.3 22-.8 1.4-.6 3.1-.7 3.7-.3.7.4.2.9-1.3 1.3l-2.4.6 2.1 2.1 2.2 2.2-3.4 7c-3.6 7.6-5.5 9-5.5 4.1 0-3.7 1.9-8 3.7-8 .7 0 1.3-.6 1.3-1.4 0-1.1-2.7-1.2-14.2-.9-15.1.5-19.4 1.4-20.3 4.3-1 3.2 1.6 5.6 7.7 7.5 5 1.5 5.8 2.1 5.8 4.1 0 2.8-.3 2.9-10.9.9-8.7-1.7-10.1-1.5-10.1 1.5 0 2.9-1.1 5-2.6 5-1.7 0-1.8 1.7-.1 2.3.7.3.5.6-.5.6-1.9.1-2.6 4.1-.8 4.1 1.2 0 1.3 4 .2 5.6-1.7 2.5-4.2 2.4-5.4-.2z" />
    </g>
    <g fill="#FFF">
        <path
            d="M252.7 261.3c-.3-1.5 0-3.7.6-4.8 1.8-3.2 1.9-4.3 2.4-20.8.4-14.7.3-16.3-1.8-21.4-1.9-4.7-2-5.9-1-9.3.6-2.2 2.1-4.5 3.3-5.1 2.9-1.5 8.7.3 11.9 3.7l2.4 2.6-4.4-.3c-5.3-.4-6.2 1-4.9 8 .4 2.5 1.1 12.4 1.4 21.9l.7 17.2h8.8l-2.6 3.4c-1.6 2.2-3.2 3.3-4.1 2.9-.8-.3-2.2.1-3.2.9-1.8 1.5-6.7 3.8-8.1 3.8-.5 0-1.1-1.2-1.4-2.7zM163 262.4c0-.6 2.6-3.4 3.2-3.4.2 0 .4.9.4 2 0 1.3-.7 2-1.8 2-1 0-1.8-.3-1.8-.6zM56 246.5c0-.8-.4-1.5-.9-1.5-1.6 0-5.9-13.6-7.6-23.7-.6-3.8-.5-4.3 1.3-4.3 1.6 0 2.1.9 2.7 5.5.4 3.4 1.1 5.5 1.9 5.5 1.5 0 3.9 9.3 2.5 9.8-1.6.6-1 2.2.9 2.3 1 0 1.2.3.5.6-1.9.7-1.6 2.3.5 2.4 1 0 1.2.3.5.6-.7.2-1.3 1.1-1.3 1.8s.6 1.6 1.3 1.8c.7.3.5.6-.5.6-1 .1-1.8-.6-1.8-1.4zM162 246.6c0-.8-.3-2.3-.6-3.3-.6-1.5-.3-1.4 1.5.4 2.5 2.6 2.7 4.3.6 4.3-.8 0-1.5-.6-1.5-1.4zM353.3 243c.1-1.1.4-2 .8-2s1.1-.9 1.4-2c.3-1.1 1.1-2 1.7-2 .6 0 .5.7-.3 1.7-.8.9-1.3 1.8-1.1 2 .8 1.2 0 4.3-1.2 4.3-.9 0-1.4-.9-1.3-2zM73.6 236.7c-3.2-6.4-3.2-6.7-.1-6.7 2 0 2.5.5 2.5 2.6 0 1.4.7 3.2 1.5 4 1.9 1.9 1.9 4 .1 4.7-.9.4-2.3-1.2-4-4.6zM274.3 235.3c-.7-.2-1.3-2-1.3-3.8 0-1.8.6-3.6 1.3-3.9 1-.5 1-.7 0-1.2-.8-.3-1.3-2.4-1.3-5 0-3.6.3-4.4 1.9-4.4 2.1 0 3.5 3.6 1.7 4.4-.6.2-.3.5.6.5 1.6.1 1.8 3.4.9 12.9-.1 1.2-1.6 1.4-3.8.5zM336.3 235.2c-1-.6-1-2.2-.3-6.7.5-3.3 1-6.1 1-6.2 0-.2.6-.3 1.4-.3 2.4 0 2.8 3.7 1.1 9-.9 2.8-1.7 5-1.8 5-.1 0-.8-.4-1.4-.8zM88.2 225.8c-1.8-1.8-1.5-5 .5-4.6 2 .4 3.8 5.8 1.9 5.8-.7 0-1.7-.5-2.4-1.2zM321.8 222.6c-2-2-1.2-5.6 1.3-5.6 2 0 2.4 2 1 5.4-.7 1.7-.8 1.7-2.3.2zM359.8 222.3c-.2-.9 0-4.8.3-8.7.3-4.4.2-7.6-.5-8.5-.8-1.1-.8-1.5.2-1.9 1-.3 1.1-1.9.6-6.3-.6-5.6-.5-5.9 1.5-5.9 1.6 0 2.1.6 2.1 2.5 0 1.4.5 2.5 1.1 2.5.9 0 1 2.9.5 10.8-.5 8.4-1 11-2.4 12-.9.7-1.6 1.5-1.4 1.7.1.3.2 1.2.2 2 0 2-1.8 1.9-2.2-.2zM46.2 206.7c-1.4-6.3-1.6-12.7-.2-12.7.5 0 1-2.6 1.2-5.7.3-5.5.4-5.8 3.1-6.1 2.3-.3 2.7 0 2.7 2 0 1.3-.4 2.8-1 3.4-1.1 1.1-1.5 15.5-.5 20.7.7 3.4.6 3.7-1.7 3.7-2 0-2.5-.7-3.6-5.3zM339 202c0-3.3.3-4 2-4s2 .7 2 4-.3 4-2 4-2-.7-2-4zM200.6 197.5c-.3-.8-1.5-1.5-2.6-1.5-1.6 0-2-.6-2-3.5 0-3 .5-3.7 4-5.5 4.7-2.4 10-2.7 10-.5 0 .8.7 1.5 1.6 1.5 1.1 0 1.4.5 1 1.6-.3.9-.6 1.8-.6 2 0 .2-.7.4-1.5.4-.9 0-1.8 1.2-2.1 2.9-.8 3.8-6.6 5.8-7.8 2.6zM358.2 181.3c-.6-1.6-1.9-6.6-3-11.3-1.2-4.7-2.4-9.5-2.7-10.7-.7-2.1-.5-2.1 1.8-1 1.9.9 3.2 3 5.2 8.9 1.4 4.3 2.3 8.2 2 8.7-.3.5-.1 1.1.4 1.3.5.1 1.2 1.8 1.6 3.6.6 2.9.5 3.2-1.8 3.2-1.8 0-2.7-.8-3.5-2.7zM87.7 181.3c-.2-.5.1-2.2.7-4 1.5-4.4 4.1-3 3.1 1.6-.6 2.8-2.8 4.2-3.8 2.4zM69 179.6c0-.3 1.2-3.6 2.6-7.5 2.2-6 2.8-6.8 4-5.6 1.8 1.8 1.8 2.5-.1 2.5-1.8 0-2 1.7-.4 2.2.9.3.9 1.5.3 4.3-.8 3.3-1.4 4.1-3.7 4.3-1.5.2-2.7.1-2.7-.2zM318.2 176.1c-1.5-4.9-1.5-5.1.3-5.1 1.6 0 3.5 3.8 3.5 7.1 0 3.4-2.6 2-3.8-2zM335.7 176.8c-2.5-10.4-1.5-15.2 1.8-8.8 1.9 3.8 2 11 .1 11-.8 0-1.6-1-1.9-2.2zM263 176c0-.5-1.2-1.3-2.7-1.6-3.1-.8-7.2-5.1-7.3-7.7-.1-5.2 15.7-12.7 23.6-11.2 4.5.8 4.6 3.5.2 3.5-3.6 0-11.2 3.1-14 5.7-1.6 1.4-1.6 1.7 0 3.9 1.4 1.9 2.6 2.3 7 2.4 4.8 0 5.2-.2 5.2-2.4 0-4 1.1-5.6 3.6-5.6 2.9 0 3 .6.4 4.8s-4.9 6.6-7.7 8.1c-2.7 1.4-8.3 1.5-8.3.1zM51 171.5c0-5.9 5.1-17.5 7.7-17.5 1.4 0 1.5.2.4.9s-1.1.9 0 1.4c1 .4.9.6-.3.6-2.1.1-2.4 1.7-.5 2.4.8.4.7.6-.3.6-1.2.1-1.5 1.1-1.4 3.9.2 3.9-2.9 12.2-4.6 12.2-.6 0-1-2-1-4.5zM214.8 149.3c-2.1-.2-3.8-.9-3.8-1.5 0-.5-.7-.8-1.5-.4-.8.3-1.5.1-1.5-.4s-1.9-1.5-4.3-2.1c-5.9-1.4-8.2-5.2-6.7-10.8 1.4-5.3 3.3-5.8 22.6-6.5 15.4-.5 18.4-.1 18.4 2.5 0 .4-4.4 1-9.7 1.3-16.3 1.1-19.2 1.6-20.3 3.7-.7 1.3-.7 2.5.2 4 1.7 2.7 8.3 5.9 12.5 5.9 2.6 0 3.3.4 3.3 1.9 0 1.6-3.2 3.5-5 2.9-.3-.1-2.2-.3-4.2-.5z" />
        <path
            d="M230 139.5c0-3.1.3-3.5 2.6-3.5 2.1 0 2.5.3 1.9 1.8-.4.9-1 2.5-1.2 3.5-1 3.2-3.3 1.9-3.3-1.8zM234.5 124c2.7-1.2 3.5-1.2 3.5 0 0 .6-1.2 1-2.7.9-2.5 0-2.6-.1-.8-.9z" />
    </g>
    <g fill="#FFF">
        <path
            d="M164.4 261.4c.3-.9.6-1.8.6-2 0-.2.4-.4.8-.4s.8.9.8 2-.7 2-1.4 2c-.9 0-1.2-.6-.8-1.6zM257.3 259.6c.3-.8.1-1.6-.5-1.8-.7-.3-.4-1.6.7-3.8 3-5.9 3-17.8-.1-41.7-.8-5.9 1.1-11.3 3.9-11.3 3.7 0 8.5 3.7 10.8 8.2 1.2 2.4 2.7 4.6 3.3 5 .6.4 1 2.5 1 4.8-.1 2.2.2 4 .7 4 .5 0 .9.7.9 1.5 0 1-1 1.5-3 1.5-2.8 0-3-.3-3-3.6 0-2-.7-4.3-1.7-5.2-1.5-1.6-1.6-1.2-1 5.3.4 3.9.7 9.5.7 12.5 0 3.9.3 5.1 1 4 .5-.8 1-3.6 1-6.2 0-4.7.1-4.8 3-4.8 2 0 3 .5 3 1.5 0 .8-.6 1.5-1.2 1.5-.9 0-.9.3.1.9 3.6 2.3-3.9 23.2-8.5 23.9-1.2.2-3.2 1.4-4.5 2.8-2.5 2.6-7.5 3.4-6.6 1zM162.6 250.8c-1-3.8-.7-5.8.9-5.8 1.2 0 1.5 1 1.3 4-.2 4.4-1.2 5.2-2.2 1.8zM52.2 237.7c-2.3-5.5-4.6-15.2-5.8-25.1-.5-4.4-.3-6 .7-6.7 2.2-1.4 2.9-1.1 2.9 1.2 0 1.1.4 1.8.9 1.5.4-.3 1.1 2.7 1.5 6.7.4 4 1.1 9 1.7 11.2.8 2.8.8 4 0 4.3-1.7.6-1.3 3.2.4 3.2.8 0 1.5.7 1.5 1.5s-.5 1.5-1.1 1.5c-.6 0-.8.7-.5 1.5.3.8.9 2.2 1.2 3 .3.8.2 1.5-.2 1.5-.5 0-1.9-2.4-3.2-5.3zM74.2 237.6c-3-6.7-6.2-16-6.2-18.3 0-.7.9-1.3 2-1.3 1.6 0 2 .7 2 3.5 0 2.4.5 3.5 1.5 3.5.8 0 1.5.8 1.5 1.8.1.9.9 4 1.9 6.9 1.6 4.9 1.6 5.2 0 5.6-1 .3-2.1-.3-2.7-1.7zM356.4 235.9c2.6-8.1 3.9-17 4.6-29.1 0-1.5 2-.8 2 .7 0 .8.5 1.5 1 1.5 1.6 0 1.1 3.7-.5 4.4-1.1.4-1.5 1.7-1.4 4.4.2 2.2-.2 5.2-.8 6.8-.6 1.6-1.7 5.2-2.3 8.1-.7 2.9-1.8 5.7-2.6 6.4-1.1.9-1.1.5 0-3.2zM338.8 227.2c-2.1-.4-2.2-2.2-.8-10.7 1.2-7.6 2-25.5 1-25.5-.6 0-2.8-11.7-3.5-19.8-.6-6.2 1.5-5 4.1 2.4 2.6 7.1 4.8 26.5 4.1 34.9-.5 6-2.5 18.7-3 19-.1.1-1 0-1.9-.3zM86.7 222.1c-.3-1.4-.9-3.4-1.2-4.3-.5-1.4-.2-1.8 1.3-1.8 1.1 0 2.3.8 2.6 1.8.2.9.7 2.7 1 3.8.5 1.6.1 2.3-1.3 2.7-1.4.3-2-.2-2.4-2.2zM322.7 220.2c-1.6-.3-1.8-1-1.2-5.5 1.2-8.5.8-20.4-1.1-30.3-1-5.1-1.5-9.6-1.1-10 1.3-1.3 2.8 1 4.9 7.9 1.9 6 2.2 9.4 2.2 20.2-.2 14.5-.9 18.2-3.7 17.7zM360.3 192.8c-.6-5.1-2-12.9-3.2-17.2-2.2-8.4-2.7-13.6-1.2-13.6.5 0 .7.8.4 1.9-.3 1.1.4 2.7 1.6 3.8 1.3 1.2 1.9 2.6 1.5 3.6-.4 1.1-.1 1.7.9 1.7 1.9 0 3.2 6.1 1.5 7.2-1 .6-.9.8.3.8 1.3 0 1.8 1.4 2.2 6.3.4 3.4.9 7.4 1.3 9 .5 2.1.3 2.7-1 2.7-.9 0-1.6.7-1.6 1.5s-.4 1.5-.9 1.5-1.3-4.2-1.8-9.2zM204.6 196.4c-.4-1-.1-1.4.6-1.2 1.5.5 2.3 2.8 1 2.8-.5 0-1.3-.7-1.6-1.6zM204.5 193c-.4-.6-1.1-.7-1.7-.4-1.5 1 .7-3 2.6-4.5.9-.7 2.3-1.1 3.1-.7 1.4.5 1.4.9 0 3.6-1.6 3.1-2.9 3.8-4 2zM68 192c-1.2-.7-1.2-1.8-.1-7.1 1.5-7.5 5.9-19.3 6-16.2.1 1.2.7 2.4 1.4 2.6.7.3.5.6-.5.6-1.9.1-2.6 2.1-.8 2.1 1.7 0 1.1 1.8-.7 2.3-1.7.4-1.7.5 0 .6 1.3.1 1.7.6 1.2 2-.4 1.5-2.5 12.6-2.5 13.9 0 .6-2.6.1-4-.8zM85.6 189.1c-1-1.6 2.4-11.1 3.9-11.1 1.8 0 1.9 1.7.4 7.6-1 4-3 5.7-4.3 3.5zM47 185c0-6.7 6.2-25.8 8.9-27.5 1.2-.7.6 8.5-.5 9.4-.5.3-1 2-1.1 3.6-.6 10.3-1.2 13.9-2.7 14.7-.9.5-1.6 1.6-1.6 2.3 0 .8-.7 1.5-1.5 1.5-1.1 0-1.5-1.1-1.5-4zM264.5 174.2c-2.2-.2-3.7-1.3-5.5-3.8-2.2-3.3-2.3-3.8-.9-6.3.8-1.4 3.9-3.9 6.9-5.4 4.4-2.2 6.6-2.7 11-2.5 5.1.3 5.5.5 5.8 3 .3 2.6-4.8 13.1-7.1 14.5-1.3.8-5.4 1-10.2.5zm8.5-5.2c0-.5.7-1 1.5-1 1.1 0 1.5-1.1 1.5-4 0-4.4-.5-4.7-3.7-2.2-2.4 1.9-3 3.9-1.9 6.5.9 1.8 2.6 2.3 2.6.7zM212.6 147.4c-.3-.8-1.2-1.4-2.1-1.4-2.9 0-6.5-5-6.5-9 0-6.4 1.1-7 15-8 6.9-.6 13.4-1.1 14.5-1.2 4.2-.5 5.9 2.9 3.2 6.6-1.4 2-4.7 1.2-4.7-1.1 0-1.1-.7-1.3-2.6-.9-1.5.4-4 1-5.6 1.3-3.8.8-6.6 4.7-4.8 6.8 1.7 2.1 4.7 1.9 6.7-.5 1.1-1.2 3-2 4.9-2 2.8 0 3.1.3 2.7 2.3-.5 2-5.5 7.5-7.1 7.8-.4.1-3.5.3-6.9.5-4.6.2-6.3-.1-6.7-1.2z" />
    </g>
    <g fill="#FFF">
        <path
            d="M265.5 249.2c-.3-2.6-.2-5.9.3-7.2.5-1.4.7-5.9.5-10-.2-4.1-.4-9.3-.4-11.5 0-2.2-.4-4.4-.9-5-1-1.2-.8-7.5.3-9.2 1.2-1.9 4.3.5 6.3 4.9.9 2.1 2.3 3.8 3 3.8 1.7 0 3 4.3 1.5 4.8-1.6.5-1.3 3.2.4 3.2 1.1 0 1.5 1.1 1.5 4s-.4 4-1.5 4c-2.1 0-1.9 1.8.3 2.3 1.6.4 1.6.5 0 .6-2 .1-2.5 3.1-.5 3.1.8 0 .7.4-.3 1s-1.1 1-.2 1c1.9 0 1.4 2-.5 2-1.5 0-1.6.2-.3 1s1.2 1-.3 1c-1.4 0-1.6.5-1.1 2.5s.2 2.5-1.2 2.6c-1.1 0-1.4.3-.6.6 1.9.8 1.4 2.3-.8 2.3-1.1 0-2 .4-2 .9s-.6 1.1-1.4 1.4c-1.1.4-1.6-.6-2.1-4.1zM356.6 236.5c1.3-5.5 2.5-7.4 2-3.1-.3 2.2-1 4.4-1.6 5-.8.8-.9.3-.4-1.9zM50.9 233.3c-4.3-10.9-6.7-33.8-4.8-46.3 1.1-7.3 4.7-19.8 5.9-20.5.4-.3 1.2.1 1.8.8 1.2 1.4 0 8.6-1.6 9.6-1.5 1-2.5 5.1-1.2 5.1.7 0 .7.7-.2 2.3-.8 1.3-1.3 6.7-1.5 13.9-.1 9.4.1 11.7 1.3 12.2 1.6.6 2 5.6.4 5.6-.5 0-1 1.4-1 3 0 2.2.5 3 1.8 3.1 1 0 1.2.3.4.6-1.7.7-.5 10.4 1.6 12.1 1.4 1.1 1.4 1.2-.1 1.2-1 0-2.2-1.2-2.8-2.7zM68.7 221.8c-3.2-13-3-31 .5-42.3 1.2-4 1.2-4 1.6-1 .2 1.6.9 3.3 1.5 3.7.8.5.6.8-.5.8-1.3 0-1.8.8-1.8 3 0 1.7.5 3 1 3 .6 0 1 4.4 1 11.3 0 10.4.8 18.1 2.5 25 .6 2.4.4 2.7-1.8 2.7s-2.6-.7-4-6.2zM338.7 218.8c.3-2.9.9-6 1.2-6.8.8-1.8.6-11-.4-24.4-.7-8.3-.6-9.8.6-9.4 2.2.7 3.8 10.2 4 23 .1 13.9-1.5 22.8-4.2 22.8-1.6 0-1.7-.6-1.2-5.2zM360 217.8c0-3.6 1.2-7.1 1.9-5.9.9 1.5.1 8.1-1 8.1-.5 0-.9-1-.9-2.2zM85.4 217.9c-.3-.6-.9-4.9-1.2-9.5-.5-8.1-.4-8.4 1.7-8.4 1.6 0 2.1.6 2.2 2.8 0 1.5.3 5.7.8 9.5.6 6 .5 6.7-1 6.7-1 0-2.1-.5-2.5-1.1zM323.6 198.3c-.9-5.7-.7-7.3.8-7.3 1.3 0 2.6 4.1 2.6 8.6 0 3.9-2.7 2.8-3.4-1.3zM360.6 192.8c-.3-1.8-.8-4.9-1.1-6.8-1.7-10.1-1.8-11-.1-11 1 0 1.3.6 1 1.5-.4.8-.1 1.5.6 1.5s.9.8.5 2.1c-.5 1.3-.2 2.5.6 2.9 1.2.8 1.4 3.5.9 10.3-.3 3.7-1.8 3.4-2.4-.5zM84 194.5c0-.2.5-2.7 1.1-5.4.9-4.4 1.3-4.9 2.5-3.7.8.8 1.4 3.3 1.4 5.5 0 3.7-.2 4.1-2.5 4.1-1.4 0-2.5-.2-2.5-.5zM323 187.9c0-2.4 2.3-2.1 2.8.4.2 1-.3 1.7-1.2 1.7-1 0-1.6-.9-1.6-2.1zM271.5 173.2c-4.9-.6-6.9-5.5-4.6-11.5 1-2.7 6.6-5.7 10.4-5.7 2.2 0 2.5.4 2.3 3-.1 1.6.2 3.1.7 3.3.8.2-3.6 9.6-5.1 10.7-.4.3-2 .4-3.7.2zM216.6 143.9c-3.1-2.4-3.3-5.2-.7-9.5 1.6-2.7 2.9-3.2 11-5.1 7.6-1.7 9.3-1.8 10.2-.6.9 1 .8 1.3-.5 1.3-.9 0-1.6.5-1.6 1 0 .6.5 1 1 1 1.6 0 1.2 1.8-1.2 5.5-1.3 1.9-3.2 3.6-4.3 3.9-1 .3-1.6.8-1.2 1.2.9 1-4.8 3.4-7.8 3.4-1.2 0-3.4-.9-4.9-2.1zM233 124.6c0-.9 4-1.3 4.6-.5.3.5-.6.9-2 .9s-2.6-.2-2.6-.4z" />
    </g>
    <g fill="#FFF">
        <path
            d="M356.4 237.3c.3-1 1-3.8 1.6-6.2.6-2.3 1.4-4.1 1.6-3.8.6.6-2.5 11.7-3.2 11.7-.3 0-.3-.8 0-1.7zM48.5 224.8c-1.4-4.2-2.3-16-2.1-26.8.2-12.3.8-16.9 2.6-19.9.7-1.3.9-1 1 1.1 0 1.4.6 2.8 1.2 3.1 1 .3 1 .7.1 1.8-.8 1-1.3 7.9-1.5 21.7-.2 11.1-.4 20.2-.6 20.2-.1 0-.5-.6-.7-1.2zM359.5 224.3c1.3-3.3 1.7-27.7.7-35.3-.6-4.1-.9-7.6-.7-7.8.2-.3 1.2.3 2.1 1.3 1.5 1.4 1.5 1.8.3 2.6-1.1.7-1.1.9-.1.9 1.1 0 1.3 3.3.9 17.3-.5 15.5-1.5 22.7-3.3 22.7-.3 0-.3-.8.1-1.7zM68.6 221.1c-1.5-2.4-2.7-16.6-2.1-25.2 1.1-15.2 2.5-14.2 2.5 1.9 0 12.2.2 14.2 1.6 14.2 1.4 0 1.4.2.1 1.5-1.8 1.7-1.1 5.5 1 5.5 1.2 0 1.2.2-.1 1.5-1.7 1.7-2.3 1.8-3 .6zM85.1 216c-.8-7.3-.9-23-.2-26 .8-3.2.9-3.3 1-.7.1 1.6.7 2.7 1.5 2.7 1.1 0 1.3 1.9 1.2 9-.1 6.2-.5 9-1.3 9-.7 0-1.4 1.8-1.6 4.3-.2 2.4-.5 3.1-.6 1.7zM340.9 204.8c0-2.9-.2-8.2-.4-11.8-.2-3.6-.1-5.7.2-4.7.2.9 1 1.7 1.7 1.7.9 0 1.6 2.5 2 8 .8 8.7.2 12-2 12-1 0-1.4-1.4-1.5-5.2zM51 171c0-1.1.7-2.3 1.5-2.7 2.1-.7 2.5-.2 1.8 2.5-.7 2.8-3.3 2.9-3.3.2zM273 167.5c0-5.2 3.5-11.5 6.3-11.4 1.2 0 1.7.3 1 .5-.7.3-.9 1.2-.6 2 .3.8 0 1.4-.6 1.4-1.5 0-1.4 2.7 0 3.2 1.9.6-2 7.8-4.2 7.8-1.5 0-1.9-.7-1.9-3.5zM226.1 140.6c-3-3.7-1.1-7.8 5-10.5 3.9-1.8 5.3-2.1 6.2-1.2.9.9.8 1.1-.5.6-2.3-.9-4.7 4.3-2.6 5.6.9.6.9 1.3-.1 3.2-1.4 2.7-6.5 4.1-8 2.3z" />
    </g>
</svg>